<?xml version="1.0" encoding="UTF-8"?>
<svg width="64" height="64" viewBox="0 0 64 64" fill="none" xmlns="http://www.w3.org/2000/svg">
  <rect width="64" height="64" rx="16" fill="#2563EB"/>
  <path d="M32 16C23.1634 16 16 23.1634 16 32C16 40.8366 23.1634 48 32 48C40.8366 48 48 40.8366 48 32C48 23.1634 40.8366 16 32 16ZM32 44.8C24.9258 44.8 19.2 39.0742 19.2 32C19.2 24.9258 24.9258 19.2 32 19.2C39.0742 19.2 44.8 24.9258 44.8 32C44.8 39.0742 39.0742 44.8 32 44.8Z" fill="white"/>
  <path d="M32 19.2C33.7673 19.2 35.2 20.6327 35.2 22.4C35.2 24.1673 33.7673 25.6 32 25.6C30.2327 25.6 28.8 24.1673 28.8 22.4C28.8 20.6327 30.2327 19.2 32 19.2Z" fill="white"/>
  <path d="M32 28.8C33.1055 28.8 34 29.6945 34 30.8V41.2C34 42.3055 33.1055 43.2 32 43.2C30.8945 43.2 30 42.3055 30 41.2V30.8C30 29.6945 30.8945 28.8 32 28.8Z" fill="white"/>
</svg>
